<svg data-v-fde0c5aa="" xmlns="http://www.w3.org/2000/svg" viewBox="0 0 300 300" class="iconLeft"><!----><defs data-v-fde0c5aa=""><linearGradient data-v-fde0c5aa="" gradientTransform="rotate(25)" id="cd467759-d2bd-4b90-bf1b-a766f34c5082" x1="0%" y1="0%" x2="100%" y2="0%"><stop data-v-fde0c5aa="" offset="0%" stop-color="#51A4FB" stop-opacity="1"></stop><stop data-v-fde0c5aa="" offset="100%" stop-color="#51A4FB" stop-opacity="1"></stop></linearGradient></defs><rect data-v-fde0c5aa="" fill="url(#cd467759-d2bd-4b90-bf1b-a766f34c5082)" x="0" y="0" width="300px" height="300px" class="logo-background-square"></rect><defs data-v-fde0c5aa=""><!----></defs><g data-v-fde0c5aa="" id="7e2913f7-1bea-4160-8980-43f624b1c8e0" fill="#ffffff" transform="matrix(2.787675793534785,0,0,2.787675793534785,106.78934305804152,125.21756190303692)"><path d="M8.09 3.78L0.20 3.78L0.20 4.79L3.56 4.79L3.56 14L4.69 14L4.69 4.79L8.09 4.79ZM8.97 10.33C8.97 12.45 10.56 14.14 12.78 14.14C14.99 14.14 16.58 12.45 16.58 10.33C16.58 8.25 14.99 6.58 12.78 6.58C10.56 6.58 8.97 8.25 8.97 10.33ZM10.01 10.36C10.01 8.76 11.16 7.49 12.78 7.49C14.39 7.49 15.53 8.76 15.53 10.36C15.53 11.94 14.39 13.23 12.78 13.23C11.16 13.23 10.01 11.94 10.01 10.36ZM22.50 3.78L18.75 3.78L18.75 14L22.50 14C25.41 14 27.72 11.94 27.72 8.89C27.72 5.87 25.42 3.78 22.50 3.78ZM22.50 13.06L19.84 13.06L19.84 4.72L22.50 4.72C24.67 4.72 26.60 6.23 26.60 8.89C26.60 11.54 24.67 13.06 22.50 13.06ZM29.16 10.33C29.16 12.45 30.74 14.14 32.97 14.14C35.18 14.14 36.76 12.45 36.76 10.33C36.76 8.25 35.18 6.58 32.97 6.58C30.74 6.58 29.16 8.25 29.16 10.33ZM30.20 10.36C30.20 8.76 31.35 7.49 32.97 7.49C34.58 7.49 35.71 8.76 35.71 10.36C35.71 11.94 34.58 13.23 32.97 13.23C31.35 13.23 30.20 11.94 30.20 10.36ZM46.48 3.78L45.28 3.78L42.15 8.01L39.10 3.78L37.84 3.78L41.45 8.81L37.52 14L38.77 14L42.04 9.62L45.19 14L46.45 14L42.71 8.81ZM47.45 6.80L48.50 6.80C48.52 5.53 49.59 4.58 51.03 4.58C52.53 4.58 53.49 5.40 53.49 6.55C53.49 7.73 52.70 8.43 51.32 9.73L47.46 13.43L47.46 14L54.96 14L54.96 12.99L49.27 12.99L52.04 10.44C53.52 9.09 54.59 8.06 54.59 6.50C54.59 4.83 53.27 3.64 51.03 3.64C48.97 3.64 47.49 4.94 47.45 6.80Z"></path></g><defs data-v-fde0c5aa=""><!----></defs><g data-v-fde0c5aa="" id="ccd2044d-f73f-4b53-8fc5-6eeeef1c309d" stroke="none" fill="#ffffff" transform="matrix(0.6887198195083551,0,0,0.6887198195083551,32.42339298709928,114.67624554111146)"><circle cx="18.132" cy="26.545" r="7.131"></circle><path d="M33.619 21.486h56.292v10.118H33.619z"></path><circle cx="18.132" cy="51.219" r="7.131"></circle><path d="M33.619 46.159h56.292v10.118H33.619z"></path><circle cx="18.132" cy="76.033" r="7.131"></circle><path d="M33.619 70.975h56.292v10.117H33.619z"></path></g><!----></svg>